{
  "accessors": [
    {
      "bufferView": 2,
      "componentType": 5126,
      "count": 1630,
      "max": [
        0.06009998917579651,
        -0.09220000356435776,
        0.49709999561309814
      ],
      "min": [
        -0.06010003015398979,
        -0.2808000147342682,
        0.3325999975204468
      ],
      "type": "VEC3"
    },
    {
      "bufferView": 2,
      "byteOffset": 19560,
      "componentType": 5126,
      "count": 1630,
      "max": [
        0.9999167919158936,
        1.0,
        1.0
      ],
      "min": [
        -0.9999167919158936,
        -1.0,
        -1.0
      ],
      "type": "VEC3"
    },
    {
      "bufferView": 1,
      "componentType": 5126,
      "count": 1630,
      "max": [
        1.9987000226974487,
        0.9943000078201294
      ],
      "min": [
        -0.002899999963119626,
        0.00039999998989515007
      ],
      "type": "VEC2"
    },
    {
      "bufferView": 0,
      "componentType": 5125,
      "count": 2712,
      "type": "SCALAR"
    },
    {
      "bufferView": 2,
      "byteOffset": 39120,
      "componentType": 5126,
      "count": 364,
      "max": [
        0.24900010228157043,
        1.4026999473571777,
        0.5928000211715698
      ],
      "min": [
        -0.24899989366531372,
        -1.3624000549316406,
        0.06270000338554382
      ],
      "type": "VEC3"
    },
    {
      "bufferView": 2,
      "byteOffset": 43488,
      "componentType": 5126,
      "count": 364,
      "max": [
        8.312284194289532e-10,
        0.7391992807388306,
        1.0
      ],
      "min": [
        -7.844513483235005e-09,
        -0.006866412237286568,
        0.6734868288040161
      ],
      "type": "VEC3"
    },
    {
      "bufferView": 1,
      "byteOffset": 13040,
      "componentType": 5126,
      "count": 364,
      "max": [
        1.6543999910354614,
        0.9912999868392944
      ],
      "min": [
        0.011800000444054604,
        0.0032999999821186066
      ],
      "type": "VEC2"
    },
    {
      "bufferView": 0,
      "byteOffset": 10848,
      "componentType": 5125,
      "count": 777,
      "type": "SCALAR"
    },
    {
      "bufferView": 2,
      "byteOffset": 47856,
      "componentType": 5126,
      "count": 20133,
      "max": [
        0.23579999804496765,
        1.3930000066757202,
        0.5825999975204468
      ],
      "min": [
        -0.22869999706745148,
        -1.295699954032898,
        0.0632999986410141
      ],
      "type": "VEC3"
    },
    {
      "bufferView": 2,
      "byteOffset": 289452,
      "componentType": 5126,
      "count": 20133,
      "max": [
        1.0,
        1.0,
        1.0
      ],
      "min": [
        -1.0,
        -1.0,
        -1.0
      ],
      "type": "VEC3"
    },
    {
      "bufferView": 1,
      "byteOffset": 15952,
      "componentType": 5126,
      "count": 20133,
      "max": [
        3.7492001056671143,
        2.3750998973846436
      ],
      "min": [
        -1.319200038909912,
        -0.7459999918937683
      ],
      "type": "VEC2"
    },
    {
      "bufferView": 0,
      "byteOffset": 13956,
      "componentType": 5125,
      "count": 44364,
      "type": "SCALAR"
    },
    {
      "bufferView": 2,
      "byteOffset": 531048,
      "componentType": 5126,
      "count": 4600,
      "max": [
        0.23639999330043793,
        1.3704999685287476,
        0.2401999980211258
      ],
      "min": [
        -0.216299906373024,
        0.25769999623298645,
        0.16940000653266907
      ],
      "type": "VEC3"
    },
    {
      "bufferView": 2,
      "byteOffset": 586248,
      "componentType": 5126,
      "count": 4600,
      "max": [
        1.0,
        1.0,
        1.0
      ],
      "min": [
        -1.0,
        -1.0,
        -1.0
      ],
      "type": "VEC3"
    },
    {
      "bufferView": 1,
      "byteOffset": 177016,
      "componentType": 5126,
      "count": 4600,
      "max": [
        1.9910999536514282,
        1.680799961090088
      ],
      "min": [
        -0.3682999908924103,
        -0.43320000171661377
      ],
      "type": "VEC2"
    },
    {
      "bufferView": 0,
      "byteOffset": 191412,
      "componentType": 5125,
      "count": 8592,
      "type": "SCALAR"
    },
    {
      "bufferView": 2,
      "byteOffset": 641448,
      "componentType": 5126,
      "count": 2216,
      "max": [
        0.28189998865127563,
        1.4332000017166138,
        0.6093000173568726
      ],
      "min": [
        -0.28189989924430847,
        -1.3624000549316406,
        0.07980000227689743
      ],
      "type": "VEC3"
    },
    {
      "bufferView": 2,
      "byteOffset": 668040,
      "componentType": 5126,
      "count": 2216,
      "max": [
        1.0,
        1.0,
        1.0
      ],
      "min": [
        -1.0,
        -1.0,
        -1.0
      ],
      "type": "VEC3"
    },
    {
      "bufferView": 3,
      "componentType": 5126,
      "count": 2216,
      "max": [
        1.0,
        1.0,
        1.0,
        1.0
      ],
      "min": [
        -1.0,
        -1.0,
        -1.0,
        -1.0
      ],
      "type": "VEC4"
    },
    {
      "bufferView": 1,
      "byteOffset": 213816,
      "componentType": 5126,
      "count": 2216,
      "max": [
        5.992499828338623,
        2.9999001026153564
      ],
      "min": [
        -4.9994001388549805,
        -4.033899784088135
      ],
      "type": "VEC2"
    },
    {
      "bufferView": 0,
      "byteOffset": 225780,
      "componentType": 5125,
      "count": 3444,
      "type": "SCALAR"
    },
    {
      "bufferView": 2,
      "byteOffset": 694632,
      "componentType": 5126,
      "count": 9173,
      "max": [
        0.25310009717941284,
        1.4026999473571777,
        0.6855999827384949
      ],
      "min": [
        -0.2551000118255615,
        -1.3624000549316406,
        -0.11580000072717667
      ],
      "type": "VEC3"
    },
    {
      "bufferView": 2,
      "byteOffset": 804708,
      "componentType": 5126,
      "count": 9173,
      "max": [
        1.0,
        1.0,
        1.0
      ],
      "min": [
        -1.0,
        -1.0,
        -1.0
      ],
      "type": "VEC3"
    },
    {
      "bufferView": 1,
      "byteOffset": 231544,
      "componentType": 5126,
      "count": 9173,
      "max": [
        2.4228999614715576,
        1.8104000091552734
      ],
      "min": [
        -1.576300024986267,
        -1.1739000082015991
      ],
      "type": "VEC2"
    },
    {
      "bufferView": 0,
      "byteOffset": 239556,
      "componentType": 5125,
      "count": 18504,
      "type": "SCALAR"
    },
    {
      "bufferView": 2,
      "byteOffset": 914784,
      "componentType": 5126,
      "count": 5690,
      "max": [
        0.20060010254383087,
        1.4026999473571777,
        0.5889999866485596
      ],
      "min": [
        -0.20059989392757416,
        -0.45339998602867126,
        -0.07360000163316727
      ],
      "type": "VEC3"
    },
    {
      "bufferView": 2,
      "byteOffset": 983064,
      "componentType": 5126,
      "count": 5690,
      "max": [
        1.0,
        1.0,
        1.0
      ],
      "min": [
        -1.0,
        -1.0,
        -1.0
      ],
      "type": "VEC3"
    },
    {
      "bufferView": 1,
      "byteOffset": 304928,
      "componentType": 5126,
      "count": 5690,
      "max": [
        2.55430006980896,
        4.700500011444092
      ],
      "min": [
        -1.142300009727478,
        -9.399299621582031
      ],
      "type": "VEC2"
    },
    {
      "bufferView": 0,
      "byteOffset": 313572,
      "componentType": 5125,
      "count": 10140,
      "type": "SCALAR"
    }
  ],
  "asset": {
    "extras": {
      "author": "Muhamad Mirza Arrafi (https://sketchfab.com/nazidefenseforceofficial)",
      "license": "CC-BY-4.0 (http://creativecommons.org/licenses/by/4.0/)",
      "source": "https://sketchfab.com/3d-models/moskva-helicopter-carrier-535adcf1560245e48e93b3759f0237ae",
      "title": "MOSKVA HELICOPTER CARRIER"
    },
    "generator": "Sketchfab-16.58.0",
    "version": "2.0"
  },
  "bufferViews": [
    {
      "buffer": 0,
      "byteLength": 354132,
      "name": "floatBufferViews",
      "target": 34963
    },
    {
      "buffer": 0,
      "byteLength": 350448,
      "byteOffset": 354132,
      "byteStride": 8,
      "name": "floatBufferViews",
      "target": 34962
    },
    {
      "buffer": 0,
      "byteLength": 1051344,
      "byteOffset": 704580,
      "byteStride": 12,
      "name": "floatBufferViews",
      "target": 34962
    },
    {
      "buffer": 0,
      "byteLength": 35456,
      "byteOffset": 1755924,
      "byteStride": 16,
      "name": "floatBufferViews",
      "target": 34962
    }
  ],
  "buffers": [
    {
      "byteLength": 1791380,
      "uri": "scene.bin"
    }
  ],
  "images": [
    {
      "uri": "textures/Material_baseColor.jpeg"
    },
    {
      "uri": "textures/Material_1_baseColor.jpeg"
    },
    {
      "uri": "textures/Material_2_baseColor.jpeg"
    },
    {
      "uri": "textures/Material_3_baseColor.png"
    },
    {
      "uri": "textures/Material_4_baseColor.jpeg"
    },
    {
      "uri": "textures/Material_5_baseColor.png"
    },
    {
      "uri": "textures/Material_5_normal.png"
    }
  ],
  "materials": [
    {
      "doubleSided": true,
      "name": "Material",
      "pbrMetallicRoughness": {
        "baseColorTexture": {
          "index": 0
        },
        "metallicFactor": 0.0,
        "roughnessFactor": 0.30000000000000004
      }
    },
    {
      "doubleSided": true,
      "name": "Material_1",
      "pbrMetallicRoughness": {
        "baseColorTexture": {
          "index": 1
        },
        "metallicFactor": 0.0,
        "roughnessFactor": 0.6
      }
    },
    {
      "doubleSided": true,
      "name": "Material_2",
      "pbrMetallicRoughness": {
        "baseColorTexture": {
          "index": 2
        },
        "metallicFactor": 0.0,
        "roughnessFactor": 0.30000000000000004
      }
    },
    {
      "doubleSided": true,
      "name": "Material_3",
      "pbrMetallicRoughness": {
        "baseColorTexture": {
          "index": 3
        },
        "metallicFactor": 0.0,
        "roughnessFactor": 0.4
      }
    },
    {
      "doubleSided": true,
      "name": "Material_4",
      "pbrMetallicRoughness": {
        "baseColorTexture": {
          "index": 4
        },
        "metallicFactor": 0.0,
        "roughnessFactor": 0.6
      }
    },
    {
      "doubleSided": true,
      "name": "Material_5",
      "normalTexture": {
        "index": 6
      },
      "pbrMetallicRoughness": {
        "baseColorTexture": {
          "index": 5
        },
        "metallicFactor": 0.0,
        "roughnessFactor": 0.6
      }
    }
  ],
  "meshes": [
    {
      "name": "Object_0",
      "primitives": [
        {
          "attributes": {
            "NORMAL": 1,
            "POSITION": 0,
            "TEXCOORD_0": 2
          },
          "indices": 3,
          "material": 3,
          "mode": 4
        }
      ]
    },
    {
      "name": "Object_1",
      "primitives": [
        {
          "attributes": {
            "NORMAL": 5,
            "POSITION": 4,
            "TEXCOORD_0": 6
          },
          "indices": 7,
          "material": 2,
          "mode": 4
        }
      ]
    },
    {
      "name": "Object_2",
      "primitives": [
        {
          "attributes": {
            "NORMAL": 9,
            "POSITION": 8,
            "TEXCOORD_0": 10
          },
          "indices": 11,
          "material": 4,
          "mode": 4
        }
      ]
    },
    {
      "name": "Object_3",
      "primitives": [
        {
          "attributes": {
            "NORMAL": 13,
            "POSITION": 12,
            "TEXCOORD_0": 14
          },
          "indices": 15,
          "material": 1,
          "mode": 4
        }
      ]
    },
    {
      "name": "Object_4",
      "primitives": [
        {
          "attributes": {
            "NORMAL": 17,
            "POSITION": 16,
            "TANGENT": 18,
            "TEXCOORD_0": 19
          },
          "indices": 20,
          "material": 5,
          "mode": 4
        }
      ]
    },
    {
      "name": "Object_5",
      "primitives": [
        {
          "attributes": {
            "NORMAL": 22,
            "POSITION": 21,
            "TEXCOORD_0": 23
          },
          "indices": 24,
          "material": 0,
          "mode": 4
        }
      ]
    },
    {
      "name": "Object_6",
      "primitives": [
        {
          "attributes": {
            "NORMAL": 26,
            "POSITION": 25,
            "TEXCOORD_0": 27
          },
          "indices": 28,
          "material": 0,
          "mode": 4
        }
      ]
    }
  ],
  "nodes": [
    {
      "children": [
        1
      ],
      "matrix": [
        1.0,
        0.0,
        0.0,
        0.0,
        0.0,
        2.220446049250313e-16,
        -1.0,
        0.0,
        0.0,
        1.0,
        2.220446049250313e-16,
        0.0,
        0.0,
        0.0,
        0.0,
        1.0
      ],
      "name": "Sketchfab_model"
    },
    {
      "children": [
        2,
        3,
        4,
        5,
        6,
        7,
        8
      ],
      "name": "MOSKVA HELICOPTER CARRIER.obj.cleaner.materialmerger.gles"
    },
    {
      "mesh": 0,
      "name": "Object_2"
    },
    {
      "mesh": 1,
      "name": "Object_3"
    },
    {
      "mesh": 2,
      "name": "Object_4"
    },
    {
      "mesh": 3,
      "name": "Object_5"
    },
    {
      "mesh": 4,
      "name": "Object_6"
    },
    {
      "mesh": 5,
      "name": "Object_7"
    },
    {
      "mesh": 6,
      "name": "Object_8"
    }
  ],
  "samplers": [
    {
      "magFilter": 9729,
      "minFilter": 9987,
      "wrapS": 10497,
      "wrapT": 10497
    }
  ],
  "scene": 0,
  "scenes": [
    {
      "name": "Sketchfab_Scene",
      "nodes": [
        0
      ]
    }
  ],
  "textures": [
    {
      "sampler": 0,
      "source": 0
    },
    {
      "sampler": 0,
      "source": 1
    },
    {
      "sampler": 0,
      "source": 2
    },
    {
      "sampler": 0,
      "source": 3
    },
    {
      "sampler": 0,
      "source": 4
    },
    {
      "sampler": 0,
      "source": 5
    },
    {
      "sampler": 0,
      "source": 6
    }
  ]
}
