{
  "accessors": [
    {
      "bufferView": 2,
      "componentType": 5126,
      "count": 17395,
      "max": [
        65.72509765625,
        54.44409942626953,
        15.30780029296875
      ],
      "min": [
        -65.74140167236328,
        -41.72800064086914,
        -8.41100025177002
      ],
      "type": "VEC3"
    },
    {
      "bufferView": 2,
      "byteOffset": 208740,
      "componentType": 5126,
      "count": 17395,
      "max": [
        1.0,
        1.0,
        0.999997615814209
      ],
      "min": [
        -1.0,
        -1.0,
        -0.999997615814209
      ],
      "type": "VEC3"
    },
    {
      "bufferView": 1,
      "componentType": 5126,
      "count": 17395,
      "max": [
        0.9983000159263611,
        0.9994999766349792
      ],
      "min": [
        0.0005000000237487257,
        0.0005000000237487257
      ],
      "type": "VEC2"
    },
    {
      "bufferView": 0,
      "componentType": 5125,
      "count": 58209,
      "type": "SCALAR"
    },
    {
      "bufferView": 2,
      "byteOffset": 417480,
      "componentType": 5126,
      "count": 57761,
      "max": [
        61.87289810180664,
        55.45920181274414,
        21.7091007232666
      ],
      "min": [
        -61.88859939575195,
        -40.54679870605469,
        -12.07759952545166
      ],
      "type": "VEC3"
    },
    {
      "bufferView": 2,
      "byteOffset": 1110612,
      "componentType": 5126,
      "count": 57761,
      "max": [
        1.0,
        0.999997615814209,
        0.999997615814209
      ],
      "min": [
        -1.0,
        -0.999997615814209,
        -0.999997615814209
      ],
      "type": "VEC3"
    },
    {
      "bufferView": 1,
      "byteOffset": 139160,
      "componentType": 5126,
      "count": 57761,
      "max": [
        0.9966999888420105,
        0.9998000264167786
      ],
      "min": [
        0.00019999999494757503,
        0.00019999999494757503
      ],
      "type": "VEC2"
    },
    {
      "bufferView": 0,
      "byteOffset": 232836,
      "componentType": 5125,
      "count": 154044,
      "type": "SCALAR"
    },
    {
      "bufferView": 2,
      "byteOffset": 1803744,
      "componentType": 5126,
      "count": 10083,
      "max": [
        5.662899971008301,
        23.571199417114258,
        6.195300102233887
      ],
      "min": [
        -5.600200176239014,
        -40.77909851074219,
        -5.745200157165527
      ],
      "type": "VEC3"
    },
    {
      "bufferView": 2,
      "byteOffset": 1924740,
      "componentType": 5126,
      "count": 10083,
      "max": [
        0.999997615814209,
        1.0,
        0.999997615814209
      ],
      "min": [
        -0.999997615814209,
        -1.0,
        -0.999997615814209
      ],
      "type": "VEC3"
    },
    {
      "bufferView": 1,
      "byteOffset": 601248,
      "componentType": 5126,
      "count": 10083,
      "max": [
        0.9994000196456909,
        0.9994999766349792
      ],
      "min": [
        0.0005000000237487257,
        0.0005000000237487257
      ],
      "type": "VEC2"
    },
    {
      "bufferView": 0,
      "byteOffset": 849012,
      "componentType": 5125,
      "count": 24984,
      "type": "SCALAR"
    },
    {
      "bufferView": 2,
      "byteOffset": 2045736,
      "componentType": 5126,
      "count": 1939,
      "max": [
        65.41629791259766,
        22.12929916381836,
        8.598699569702148
      ],
      "min": [
        -65.43240356445313,
        -40.731300354003906,
        -3.687299966812134
      ],
      "type": "VEC3"
    },
    {
      "bufferView": 2,
      "byteOffset": 2069004,
      "componentType": 5126,
      "count": 1939,
      "max": [
        0.9999783039093018,
        0.9999135732650757,
        0.9982077479362488
      ],
      "min": [
        -0.9999783039093018,
        -0.9999133348464966,
        -0.9982077479362488
      ],
      "type": "VEC3"
    },
    {
      "bufferView": 1,
      "byteOffset": 681912,
      "componentType": 5126,
      "count": 1939,
      "max": [
        0.9980000257492065,
        0.9994999766349792
      ],
      "min": [
        0.0005000000237487257,
        0.0005000000237487257
      ],
      "type": "VEC2"
    },
    {
      "bufferView": 0,
      "byteOffset": 948948,
      "componentType": 5125,
      "count": 6516,
      "type": "SCALAR"
    }
  ],
  "asset": {
    "extras": {
      "author": "Muhamad Mirza Arrafi (https://sketchfab.com/nazidefenseforceofficial)",
      "license": "CC-BY-4.0 (http://creativecommons.org/licenses/by/4.0/)",
      "source": "https://sketchfab.com/3d-models/northrop-grumman-e-2-hawkeye-32a03956f13b40bdb86b520193314716",
      "title": "Northrop Grumman E-2 Hawkeye"
    },
    "generator": "Sketchfab-16.61.0",
    "version": "2.0"
  },
  "bufferViews": [
    {
      "buffer": 0,
      "byteLength": 975012,
      "name": "floatBufferViews",
      "target": 34963
    },
    {
      "buffer": 0,
      "byteLength": 697424,
      "byteOffset": 975012,
      "byteStride": 8,
      "name": "floatBufferViews",
      "target": 34962
    },
    {
      "buffer": 0,
      "byteLength": 2092272,
      "byteOffset": 1672436,
      "byteStride": 12,
      "name": "floatBufferViews",
      "target": 34962
    }
  ],
  "buffers": [
    {
      "byteLength": 3764708,
      "uri": "scene.bin"
    }
  ],
  "images": [
    {
      "uri": "textures/01___Default_baseColor.jpeg"
    },
    {
      "uri": "textures/02___Default_baseColor.jpeg"
    },
    {
      "uri": "textures/03___Default_baseColor.jpeg"
    },
    {
      "uri": "textures/04___Default_baseColor.png"
    }
  ],
  "materials": [
    {
      "doubleSided": true,
      "name": "01___Default",
      "pbrMetallicRoughness": {
        "baseColorTexture": {
          "index": 0
        },
        "metallicFactor": 0.0,
        "roughnessFactor": 0.4
      }
    },
    {
      "doubleSided": true,
      "name": "02___Default",
      "pbrMetallicRoughness": {
        "baseColorTexture": {
          "index": 1
        },
        "metallicFactor": 0.0,
        "roughnessFactor": 0.4
      }
    },
    {
      "doubleSided": true,
      "name": "03___Default",
      "pbrMetallicRoughness": {
        "baseColorTexture": {
          "index": 2
        },
        "metallicFactor": 0.0,
        "roughnessFactor": 0.6
      }
    },
    {
      "alphaMode": "BLEND",
      "doubleSided": true,
      "name": "04___Default",
      "pbrMetallicRoughness": {
        "baseColorTexture": {
          "index": 3
        },
        "roughnessFactor": 0.0
      }
    }
  ],
  "meshes": [
    {
      "name": "Object_0",
      "primitives": [
        {
          "attributes": {
            "NORMAL": 1,
            "POSITION": 0,
            "TEXCOORD_0": 2
          },
          "indices": 3,
          "material": 0,
          "mode": 4
        }
      ]
    },
    {
      "name": "Object_1",
      "primitives": [
        {
          "attributes": {
            "NORMAL": 5,
            "POSITION": 4,
            "TEXCOORD_0": 6
          },
          "indices": 7,
          "material": 1,
          "mode": 4
        }
      ]
    },
    {
      "name": "Object_2",
      "primitives": [
        {
          "attributes": {
            "NORMAL": 9,
            "POSITION": 8,
            "TEXCOORD_0": 10
          },
          "indices": 11,
          "material": 2,
          "mode": 4
        }
      ]
    },
    {
      "name": "Object_3",
      "primitives": [
        {
          "attributes": {
            "NORMAL": 13,
            "POSITION": 12,
            "TEXCOORD_0": 14
          },
          "indices": 15,
          "material": 3,
          "mode": 4
        }
      ]
    }
  ],
  "nodes": [
    {
      "children": [
        1
      ],
      "matrix": [
        1.0,
        0.0,
        0.0,
        0.0,
        0.0,
        2.220446049250313e-16,
        -1.0,
        0.0,
        0.0,
        1.0,
        2.220446049250313e-16,
        0.0,
        0.0,
        0.0,
        0.0,
        1.0
      ],
      "name": "Sketchfab_model"
    },
    {
      "children": [
        2,
        3,
        4,
        5
      ],
      "name": "Northrop Grumman E-2 Hawkeye.obj.cleaner.materialmerger.gles"
    },
    {
      "mesh": 0,
      "name": "Object_2"
    },
    {
      "mesh": 1,
      "name": "Object_3"
    },
    {
      "mesh": 2,
      "name": "Object_4"
    },
    {
      "mesh": 3,
      "name": "Object_5"
    }
  ],
  "samplers": [
    {
      "magFilter": 9729,
      "minFilter": 9987,
      "wrapS": 10497,
      "wrapT": 10497
    }
  ],
  "scene": 0,
  "scenes": [
    {
      "name": "Sketchfab_Scene",
      "nodes": [
        0
      ]
    }
  ],
  "textures": [
    {
      "sampler": 0,
      "source": 0
    },
    {
      "sampler": 0,
      "source": 1
    },
    {
      "sampler": 0,
      "source": 2
    },
    {
      "sampler": 0,
      "source": 3
    }
  ]
}
