{
  "accessors": [
    {
      "bufferView": 2,
      "componentType": 5126,
      "count": 7612,
      "max": [
        7.69688606262207,
        2.270603895187378,
        1.2434099912643433
      ],
      "min": [
        -7.6968889236450195,
        -1.2765300273895264,
        -1.243412971496582
      ],
      "type": "VEC3"
    },
    {
      "bufferView": 2,
      "byteOffset": 91344,
      "componentType": 5126,
      "count": 7612,
      "max": [
        0.9999932050704956,
        0.999984860420227,
        0.9999924898147583
      ],
      "min": [
        -0.9999927282333374,
        -0.999984860420227,
        -0.9999923706054688
      ],
      "type": "VEC3"
    },
    {
      "bufferView": 1,
      "componentType": 5126,
      "count": 7612,
      "max": [
        0.9968597888946533,
        0.9990149736404419
      ],
      "min": [
        0.0009850000496953726,
        0.005087077617645264
      ],
      "type": "VEC2"
    },
    {
      "bufferView": 0,
      "componentType": 5125,
      "count": 27954,
      "type": "SCALAR"
    },
    {
      "bufferView": 2,
      "byteOffset": 182688,
      "componentType": 5126,
      "count": 2363,
      "max": [
        7.696107864379883,
        1.280413031578064,
        1.2434029579162598
      ],
      "min": [
        -7.696887969970703,
        -1.2762130498886108,
        -1.2434049844741821
      ],
      "type": "VEC3"
    },
    {
      "bufferView": 2,
      "byteOffset": 211044,
      "componentType": 5126,
      "count": 2363,
      "max": [
        0.9999995231628418,
        0.9999991655349731,
        0.9999995231628418
      ],
      "min": [
        -0.9999995231628418,
        -0.9999953508377075,
        -0.9999995231628418
      ],
      "type": "VEC3"
    },
    {
      "bufferView": 1,
      "byteOffset": 60896,
      "componentType": 5126,
      "count": 2363,
      "max": [
        0.9968599081039429,
        0.9990149736404419
      ],
      "min": [
        0.0009850000496953726,
        0.004735708236694336
      ],
      "type": "VEC2"
    },
    {
      "bufferView": 0,
      "byteOffset": 111816,
      "componentType": 5125,
      "count": 7080,
      "type": "SCALAR"
    }
  ],
  "asset": {
    "extras": {
      "author": "SB-129 (https://sketchfab.com/hrd4588)",
      "license": "CC-BY-4.0 (http://creativecommons.org/licenses/by/4.0/)",
      "source": "https://sketchfab.com/3d-models/uss-seawolf-ssn-21-90ebfc165a6148e38cb2d7245dc2cd48",
      "title": "USS Seawolf (SSN-21)"
    },
    "generator": "Sketchfab-16.74.0",
    "version": "2.0"
  },
  "bufferViews": [
    {
      "buffer": 0,
      "byteLength": 140136,
      "name": "floatBufferViews",
      "target": 34963
    },
    {
      "buffer": 0,
      "byteLength": 79800,
      "byteOffset": 140136,
      "byteStride": 8,
      "name": "floatBufferViews",
      "target": 34962
    },
    {
      "buffer": 0,
      "byteLength": 239400,
      "byteOffset": 219936,
      "byteStride": 12,
      "name": "floatBufferViews",
      "target": 34962
    }
  ],
  "buffers": [
    {
      "byteLength": 459336,
      "uri": "scene.bin"
    }
  ],
  "images": [
    {
      "uri": "textures/Default_OBJ.003_baseColor.png"
    }
  ],
  "materials": [
    {
      "doubleSided": true,
      "name": "Default_OBJ.003",
      "pbrMetallicRoughness": {
        "baseColorTexture": {
          "index": 0
        },
        "metallicFactor": 0.0,
        "roughnessFactor": 0.5
      }
    },
    {
      "doubleSided": true,
      "name": "Default_OBJ.004",
      "pbrMetallicRoughness": {
        "baseColorTexture": {
          "index": 0
        },
        "metallicFactor": 0.0,
        "roughnessFactor": 0.5
      }
    }
  ],
  "meshes": [
    {
      "name": "Object_0",
      "primitives": [
        {
          "attributes": {
            "NORMAL": 1,
            "POSITION": 0,
            "TEXCOORD_0": 2
          },
          "indices": 3,
          "material": 0,
          "mode": 4
        }
      ]
    },
    {
      "name": "Object_1",
      "primitives": [
        {
          "attributes": {
            "NORMAL": 5,
            "POSITION": 4,
            "TEXCOORD_0": 6
          },
          "indices": 7,
          "material": 1,
          "mode": 4
        }
      ]
    }
  ],
  "nodes": [
    {
      "children": [
        1
      ],
      "matrix": [
        1.0,
        0.0,
        0.0,
        0.0,
        0.0,
        2.220446049250313e-16,
        -1.0,
        0.0,
        0.0,
        1.0,
        2.220446049250313e-16,
        0.0,
        0.0,
        0.0,
        0.0,
        1.0
      ],
      "name": "Sketchfab_model"
    },
    {
      "children": [
        2
      ],
      "name": "root"
    },
    {
      "children": [
        3,
        5
      ],
      "matrix": [
        1.0,
        0.0,
        0.0,
        0.0,
        0.0,
        2.220446049250313e-16,
        1.0,
        0.0,
        0.0,
        -1.0,
        2.220446049250313e-16,
        0.0,
        0.0,
        0.0,
        0.0,
        1.0
      ],
      "name": "GLTF_SceneRootNode"
    },
    {
      "children": [
        4
      ],
      "matrix": [
        1.0,
        0.0,
        0.0,
        0.0,
        0.0,
        0.9999710924242886,
        0.007603572566554687,
        0.0,
        0.0,
        -0.007603572566554687,
        0.9999710924242886,
        0.0,
        0.0,
        1.1742035150527954,
        0.0,
        1.0
      ],
      "name": "USS_Seawolf_0"
    },
    {
      "mesh": 0,
      "name": "Object_4"
    },
    {
      "children": [
        6
      ],
      "matrix": [
        1.0,
        0.0,
        0.0,
        0.0,
        0.0,
        0.9999710924242886,
        0.007603572566554687,
        0.0,
        0.0,
        -0.007603572566554687,
        0.9999710924242886,
        0.0,
        0.0,
        1.1742035150527954,
        0.0,
        1.0
      ],
      "name": "USS_Seawolf #105948_1"
    },
    {
      "mesh": 1,
      "name": "Object_6"
    }
  ],
  "samplers": [
    {
      "magFilter": 9729,
      "minFilter": 9987,
      "wrapS": 10497,
      "wrapT": 10497
    }
  ],
  "scene": 0,
  "scenes": [
    {
      "name": "Sketchfab_Scene",
      "nodes": [
        0
      ]
    }
  ],
  "textures": [
    {
      "sampler": 0,
      "source": 0
    }
  ]
}
